<?xml version="1.0" standalone="no"?>
<!DOCTYPE svg PUBLIC "-//W3C//DTD SVG 20010904//EN"
 "http://www.w3.org/TR/2001/REC-SVG-20010904/DTD/svg10.dtd">
<svg version="1.0" xmlns="http://www.w3.org/2000/svg"
 width="1000.000000pt" height="1000.000000pt" viewBox="0 0 1000.000000 1000.000000"
 preserveAspectRatio="xMidYMid meet">

<g transform="translate(0.000000,1000.000000) scale(0.100000,-0.100000)"
fill="#000000" stroke="none">
<path d="M3812 6668 c-479 -12 -820 -44 -1087 -103 -275 -60 -790 -252 -1260
-470 -110 -51 -245 -109 -299 -130 -285 -106 -692 -172 -1004 -163 l-113 3 -5
-25 c-3 -14 -14 -51 -25 -83 -24 -73 -24 -138 1 -257 15 -70 23 -166 30 -360
25 -655 57 -817 192 -965 96 -105 232 -147 545 -167 179 -11 193 -10 343 19
24 4 27 0 48 -64 27 -85 97 -208 158 -280 164 -192 390 -295 644 -294 278 1
528 131 698 364 l43 57 2523 0 2523 0 31 -48 c46 -72 189 -204 267 -247 156
-87 341 -126 501 -106 116 15 251 60 344 115 77 45 202 163 261 245 29 40 32
42 42 25 5 -10 19 -29 30 -41 20 -23 21 -23 341 -22 177 1 334 4 350 8 51 11
53 27 20 173 -43 197 -41 303 10 516 l40 163 -11 158 c-7 91 -17 172 -26 192
-15 37 -96 104 -202 168 -64 39 -345 165 -479 215 -321 121 -720 193 -1601
291 -176 19 -349 40 -385 45 -36 5 -128 14 -205 21 -194 15 -285 32 -362 68
-36 17 -174 103 -307 190 -331 218 -693 444 -846 528 -59 33 -298 118 -440
158 -192 53 -379 79 -690 95 -306 15 -341 16 -638 8z m-1688 -1894 c33 -8 93
-31 133 -50 75 -36 186 -128 181 -150 -5 -23 -442 -319 -457 -310 -5 4 -94 94
-196 202 l-186 195 23 18 c40 31 110 64 188 87 92 28 224 31 314 8z m6496 0
c104 -24 203 -77 280 -150 60 -57 150 -178 150 -201 0 -5 -28 -16 -63 -26 -34
-10 -152 -47 -263 -83 -111 -35 -204 -64 -207 -64 -9 0 -247 476 -247 494 0
38 231 59 350 30z m-291 -333 c39 -123 71 -228 71 -233 0 -11 -498 -259 -504
-250 -11 18 -36 167 -36 217 0 81 27 189 67 275 45 93 173 227 255 265 l53 25
12 -38 c6 -20 43 -138 82 -261z m-6661 72 c166 -239 222 -322 222 -331 0 -15
-392 -383 -404 -379 -6 2 -26 28 -44 58 -101 167 -108 406 -17 587 34 67 128
192 145 192 5 0 49 -57 98 -127z m842 -19 c93 -153 112 -364 50 -541 -23 -65
-91 -171 -143 -221 l-35 -34 -69 99 c-39 54 -110 158 -159 232 l-89 133 200
194 c110 106 202 193 205 194 3 0 21 -25 40 -56z m6569 -151 c22 -79 25 -228
7 -306 -24 -100 -80 -207 -148 -281 -55 -61 -169 -146 -194 -146 -7 0 -19 17
-27 38 -30 74 -157 485 -152 490 10 10 480 251 490 251 6 1 17 -20 24 -46z
m-502 -502 c67 -133 121 -247 118 -251 -11 -17 -124 -33 -231 -32 -91 0 -124
5 -183 25 -133 47 -242 132 -323 256 -36 56 -45 77 -36 83 7 4 76 28 153 53
77 24 187 60 245 79 58 19 111 34 119 33 8 -1 70 -112 138 -246z m-6429 62
c95 -98 180 -189 189 -202 16 -22 16 -24 -3 -38 -44 -34 -184 -93 -245 -102
-93 -15 -237 -5 -307 21 -101 38 -272 154 -272 185 0 4 64 51 141 103 77 52
177 121 222 152 45 32 87 57 92 58 6 0 88 -80 183 -177z"/>
</g>
</svg>
